<?xml version="1.0" standalone="no"?>
<svg xmlns="http://www.w3.org/2000/svg" xmlns:xlink="http://www.w3.org/1999/xlink" width="172pt" height="222pt" viewBox="0.00 0.00 171.66 221.6">
<g id="graph0" class="graph" transform="translate(4,217.4276885986328) scale(1)" data-name="G">

<polygon fill="white" stroke="none" points="-4,4 -4,-217.6 167.66,-217.6 167.66,4 -4,4"/>
<!-- Live -->
<g id="node1" class="node" pointer-events="visible" data-name="Live">

<ellipse fill="rgb(0, 128, 0)" stroke="rgb(0, 128, 0)" cx="72.66" cy="-106.8" rx="28.97" ry="18"/>
<text text-anchor="middle" x="72.66" y="-102.6" font-family="Times,serif" font-size="14.00">Live</text>
</g>
<!-- shortName -->
<g id="node2" class="node" pointer-events="visible" data-name="Dataproject" data-comment="shortName">

<ellipse fill="rgb(255, 255, 0)" stroke="rgb(255, 255, 0)" cx="72.66" cy="-195.6" rx="38.28" ry="18"/>
<text text-anchor="middle" x="72.66" y="-191.4" font-family="Times,serif" font-size="14.00">Project</text>
</g>
<!-- F1 -->
<g id="node3" class="node" pointer-events="visible" data-name="Test" data-comment="F1">

<ellipse fill="rgb(0, 0, 255)" stroke="rgb(0, 0, 255)" cx="27.66" cy="-18" rx="27.83" ry="18"/>
<text text-anchor="middle" x="27.66" y="-13.8" font-family="Times,serif" font-size="14.00">Test</text>
</g><g id="edge1" class="edge" data-name="Dataproject-&gt;Live" data-comment="F1">

<path fill="none" stroke="black" d="M72.66,-177.45C72.66,-165.76 72.66,-149.99 72.66,-136.42"/>
<polygon fill="black" stroke="black" points="76.16,-136.72 72.66,-126.72 69.16,-136.72 76.16,-136.72"/>
<text text-anchor="middle" x="118.16" y="-147" font-family="Times,serif" font-size="14.00">Synchronisation</text>
</g><g id="edge2" class="edge" data-name="Live-&gt;Test" data-comment="F1">

<path fill="none" stroke="black" d="M64.2,-89.47C57.77,-77.07 48.78,-59.74 41.34,-45.37"/>
<polygon fill="black" stroke="black" points="44.65,-44.16 36.94,-36.89 38.43,-47.38 44.65,-44.16"/>
<text text-anchor="middle" x="74.43" y="-58.2" font-family="Times,serif" font-size="14.00">Refresh</text>
</g>
<!-- F1&#45;&gt;shortName -->
<!-- F1&#45;&gt;shortName -->
<g id="node4" class="node" pointer-events="visible" data-name="Training" data-comment="F1-&gt;shortName">

<ellipse fill="rgb(255, 165, 0)" stroke="rgb(255, 165, 0)" cx="117.66" cy="-18" rx="44.08" ry="18"/>
<text text-anchor="middle" x="117.66" y="-13.8" font-family="Times,serif" font-size="14.00">Training</text>
</g>
<g id="edge3" class="edge" data-name="Live-&gt;Training" data-comment="F1-&gt;shortName">

<path fill="none" stroke="black" d="M81.13,-89.47C87.46,-77.26 96.25,-60.29 103.63,-46.07"/>
<polygon fill="black" stroke="black" points="106.74,-47.68 108.23,-37.19 100.52,-44.46 106.74,-47.68"/>
<text text-anchor="middle" x="125.43" y="-58.2" font-family="Times,serif" font-size="14.00">Refresh</text>
</g>
<!-- F1 -->

<!-- shortName -->

</g>
</svg>